<?xml version="1.0" encoding="UTF-8" standalone="no"?>
<svg
   xmlns:dc="http://purl.org/dc/elements/1.1/"
   xmlns:cc="http://creativecommons.org/ns#"
   xmlns:rdf="http://www.w3.org/1999/02/22-rdf-syntax-ns#"
   xmlns:svg="http://www.w3.org/2000/svg"
   xmlns="http://www.w3.org/2000/svg"
   xmlns:sodipodi="http://sodipodi.sourceforge.net/DTD/sodipodi-0.dtd"
   xmlns:inkscape="http://www.inkscape.org/namespaces/inkscape"
   id="paw"
   version="1.1"
   width="640"
   height="480"
>
  <g
     id="g4">
    <g
       id="g7" transform="scale(0.4, 0.3)">
      <path
         d="m 361.13653,12.68 c -1.28717,0.31005 -2.59622,0.664315 -3.88694,1.047622 -50.20289,19.121402 -65.52793,68.998895 -57.80807,108.094768 4.69258,36.00816 38.10624,75.98654 89.21118,72.53403 7.38931,-0.57625 14.57754,-2.74476 21.02467,-5.79526 53.8415,-28.83583 63.1757,-89.060889 40.70123,-131.993543 C 438.87309,28.146398 401.03884,3.0685512 361.13653,12.679999 z M 139.54365,65.673332 c -32.39037,8.124465 -49.728599,39.757818 -47.329739,65.190238 4.09746,50.53794 50.711219,103.77413 119.570159,104.20349 6.32401,-0.36309 12.56922,-1.68807 18.40815,-3.81646 41.58099,-15.6123 48.11256,-57.75839 36.75068,-87.95323 C 253.04251,103.216 211.59915,62.710182 154.32082,63.725009 c -5.22908,0.114114 -10.14998,0.787694 -14.77717,1.948324 z m 406.71352,52.602128 c -55.54925,15.60684 -80.50424,68.3953 -73.22885,110.6501 1.76062,31.27763 34.28721,66.16672 78.24361,58.57843 60.08407,-14.45115 85.52122,-74.1688 73.74134,-117.80356 -5.10874,-29.47626 -37.52442,-59.22299 -78.7561,-51.42497 z M 55.900565,241.58166 c -24.032306,5.35904 -44.122023,21.99851 -46.0248568,42.8273 -5.033832,55.7044 57.0573438,110.49462 129.4637318,105.29109 30.02727,-2.7855 49.96753,-25.89151 50.63116,-48.32301 1.27926,-47.94635 -45.93551,-92.40933 -104.883236,-100.47202 -9.749947,-1.7825 -19.782848,-1.42038 -29.186799,0.67664 z m 281.174045,33.09043 c -46.99095,10.89998 -88.93579,40.51067 -110.73402,75.2341 -22.80475,39.87284 -38.01415,83.6651 -35.83536,126.85871 -3.6481,32.29352 35.90208,59.38822 76.16359,50.33925 48.68748,-10.08299 82.16614,-45.56565 129.65441,-58.55889 39.28523,-14.24477 80.98297,-6.09222 121.0444,-3.69575 34.4826,3.23581 76.3922,-10.69244 84.15541,-40.59181 4.2027,-29.62188 -23.15004,-53.88027 -45.84883,-74.10287 -43.212,-31.35791 -89.26169,-64.1694 -147.90841,-76.45937 -23.5918,-5.19736 -47.74214,-4.34659 -70.69119,0.97663 z"
         style="fill:#ffffff"
         id="path9" />
    </g>
  </g>
</svg>
